PathFileType	4	(X/Y/Z)	C:/Users/opensim2020/Desktop/walking_exp_matlab/subject06_walking19_straight_02.trc	
DataRate	CameraRate	NumFrames	NumMarkers	Units	OrigDataRate	OrigDataStartFrame	OrigNumFrames	
100.00	100.00	8	49	mm	100.00	2234	332	
Frame#	Time	LFHD			RFHD			LBHD			RBHD			C7			T10			CLAV			STRN			RBAK			LSHO			LUPA			LELB			LFRM			LWRA			LWRB			LFIN			RSHO			RUPA			RELB			RFRM			RWRA			RWRB			RFIN			LASI			RASI			LPSI			RPSI			LTHI			LKNE			LTIB			LANK			LHEE			LTOE			RTHI			RKNE			RTIB			RANK			RHEE			RTOE			*39			*40			*41			*42			*43			*44			*45			*46			*47			*48			
		X1	Y1	Z1	X2	Y2	Z2	X3	Y3	Z3	X4	Y4	Z4	X5	Y5	Z5	X6	Y6	Z6	X7	Y7	Z7	X8	Y8	Z8	X9	Y9	Z9	X10	Y10	Z10	X11	Y11	Z11	X12	Y12	Z12	X13	Y13	Z13	X14	Y14	Z14	X15	Y15	Z15	X16	Y16	Z16	X17	Y17	Z17	X18	Y18	Z18	X19	Y19	Z19	X20	Y20	Z20	X21	Y21	Z21	X22	Y22	Z22	X23	Y23	Z23	X24	Y24	Z24	X25	Y25	Z25	X26	Y26	Z26	X27	Y27	Z27	X28	Y28	Z28	X29	Y29	Z29	X30	Y30	Z30	X31	Y31	Z31	X32	Y32	Z32	X33	Y33	Z33	X34	Y34	Z34	X35	Y35	Z35	X36	Y36	Z36	X37	Y37	Z37	X38	Y38	Z38	X39	Y39	Z39	X40	Y40	Z40	X41	Y41	Z41	X42	Y42	Z42	X43	Y43	Z43	X44	Y44	Z44	X45	Y45	Z45	X46	Y46	Z46	X47	Y47	Z47	X48	Y48	Z48	X49	Y49	Z49	

42	0.410	-978.74182	993.00098	1664.11060	-1110.07947	984.57617	1652.31189	-984.96899	1121.15454	1598.24023	-1114.20361	1111.03540	1591.48340	-1028.58105	1106.57495	1445.43811	-1029.35352	1133.22131	1118.60657	-1034.68323	993.99359	1371.62561	-1025.50513	951.54645	1195.15808	-1096.59485	1178.33936	1273.29321	-870.57251	1034.62329	1407.29761	-794.59857	1010.93689	1207.37122	-780.45166	996.09271	1095.62109	-766.68591	897.47308	983.49243	-811.07886	778.98499	939.57288	-785.26941	824.31989	890.65247	-788.36652	741.08417	853.57788	-1193.46228	1049.46411	1398.27026	-1271.51428	1107.72314	1201.67151	-1278.82043	1111.45947	1079.10986	-1293.03052	1112.54761	958.23529	-1263.16370	1069.25757	812.80432	-1297.90796	1126.97546	820.48730	-1300.60681	1101.12268	739.98907	-923.40881	965.16949	947.53815	-1144.80701	954.26343	967.08673	-957.40149	1118.50793	987.03174	-1125.30090	1107.07788	995.93463	-878.55139	1098.02112	643.83093	-899.35431	1137.50598	483.87408	-905.57367	1282.32751	269.06195	-947.89374	1357.99316	111.48853	-991.66364	1401.79077	112.64766	-959.48193	1234.94482	33.13652	-1204.85718	967.39185	641.00751	-1173.17432	939.82568	520.72375	-1177.10120	947.93964	254.61899	-1134.99731	942.74768	67.89703	-1094.39709	983.25232	41.06704	-1117.31689	788.25226	38.21064	-1043.96667	1092.84509	1693.12866																											 
43	0.420	-980.39984	986.82758	1665.25012	-1111.71069	978.28082	1653.31079	-986.56073	1114.80676	1599.11230	-1115.79919	1104.62158	1592.28943	-1030.28186	1100.07068	1446.28674	-1031.42139	1126.09082	1119.48413	-1036.35059	987.38123	1372.69116	-1027.28992	944.55084	1196.35168	-1098.50342	1171.41284	1274.23621	-872.28235	1028.24841	1408.15576	-796.29401	1004.10687	1208.36499	-782.30353	989.31171	1096.57837	-767.79669	891.10132	984.17017	-811.96936	772.81311	939.32111	-785.80249	818.36499	890.83173	-788.49933	735.23212	853.44214	-1195.08167	1042.71423	1399.51453	-1272.85229	1101.22363	1202.84607	-1280.06128	1105.06885	1080.34473	-1293.89453	1105.90784	959.43304	-1263.35278	1062.40088	814.14429	-1298.28271	1120.07568	821.57440	-1300.49646	1094.07214	741.04761	-924.81165	958.45471	948.87146	-1146.17090	946.82172	967.59143	-959.54785	1111.67444	987.99774	-1127.29114	1099.42993	996.82336	-878.99042	1091.56555	645.13129	-899.06458	1130.65100	484.97009	-904.57654	1277.42810	271.71762	-946.45703	1355.47266	114.89496	-989.78735	1399.23645	117.24604	-959.28162	1234.40308	33.20110	-1205.30847	960.89050	641.22626	-1173.58008	934.56000	520.88220	-1177.12488	945.24078	254.72215	-1134.89819	942.30072	67.92467	-1094.38794	983.18768	41.06841	-1116.82556	788.19489	38.39286	-1045.72070	1086.64697	1694.04395																											 
44	0.430	-982.01068	980.58905	1666.18347	-1113.29199	972.02301	1654.22339	-988.17322	1108.54980	1599.98157	-1117.10925	1098.08826	1593.01501	-1031.95020	1093.54395	1447.00366	-1033.46411	1118.96863	1120.18237	-1037.96155	980.85394	1373.60437	-1029.03357	937.35785	1197.25586	-1100.48035	1164.50745	1274.93152	-873.94019	1021.96692	1408.86133	-797.97003	997.44312	1209.17029	-783.85394	982.43256	1097.41602	-768.84430	884.82397	984.62134	-812.94794	766.77167	938.79907	-786.28186	812.30957	891.12488	-788.87811	729.43768	853.17108	-1196.77625	1035.98010	1400.60168	-1274.58215	1094.70374	1204.07971	-1281.34863	1098.54321	1081.38135	-1294.81750	1099.17224	960.40765	-1263.60229	1055.29236	815.31024	-1298.71790	1112.92407	822.48749	-1300.48730	1086.86682	741.91718	-926.17804	951.80621	949.95923	-1147.50403	939.25684	968.22949	-961.49725	1104.85730	988.73688	-1129.15112	1092.00598	997.55475	-879.57465	1084.99805	646.26605	-898.91614	1123.50476	485.87524	-903.75922	1272.42175	274.21939	-944.59094	1352.74536	118.33958	-987.90167	1396.26257	121.45602	-959.07959	1233.84021	33.31300	-1206.17676	954.54669	641.59515	-1174.03479	929.46252	520.87177	-1177.25610	942.27216	254.68292	-1134.85974	941.91626	67.96318	-1094.48950	983.08643	41.08989	-1116.48645	788.06201	38.45329	-1047.30090	1080.42004	1694.84607																											 
45	0.440	-983.51068	974.34235	1667.06799	-1114.82947	965.79779	1655.05359	-989.92273	1102.14233	1600.55347	-1118.67310	1091.82788	1593.68335	-1033.69495	1087.10376	1447.63977	-1035.48071	1111.93115	1120.73291	-1039.55591	974.25586	1374.48523	-1030.65344	930.69989	1198.22888	-1102.54370	1157.70251	1275.44788	-875.59656	1015.85229	1409.36658	-799.66992	990.96106	1209.77258	-785.19489	975.45453	1098.09399	-769.84985	878.59027	984.86658	-814.00830	760.95917	938.00006	-786.30231	807.05249	890.48401	-788.83234	724.09241	852.42670	-1198.48962	1029.27258	1401.50073	-1276.17407	1088.12036	1204.97607	-1282.68945	1091.92993	1082.21729	-1295.83936	1092.34875	961.20038	-1263.87170	1048.06592	816.16083	-1299.17297	1105.65479	823.08514	-1300.52759	1079.55237	742.57379	-927.47046	945.18640	950.87152	-1148.64355	931.63452	968.95251	-963.31604	1098.17175	989.36377	-1130.85986	1084.63074	998.19727	-880.20343	1078.16223	647.11084	-898.89014	1116.13867	486.54977	-903.14148	1267.24060	276.61649	-943.42920	1349.72583	121.79301	-986.47211	1393.21448	125.80150	-958.96893	1233.31677	33.45811	-1207.07080	948.50568	641.76776	-1174.70178	924.44592	520.79822	-1177.51270	939.48505	254.65233	-1134.81567	941.38147	67.89511	-1094.60986	982.96350	41.17025	-1116.28394	787.86023	38.45142	-1048.82434	1074.28235	1695.52014																											 
46	0.450	-984.92999	968.20477	1667.70264	-1116.30151	959.64191	1655.78040	-991.20361	1095.82874	1600.97681	-1120.33228	1085.69519	1594.23193	-1035.39844	1080.63843	1448.14099	-1037.45288	1104.96899	1121.15869	-1041.14954	967.63257	1375.16370	-1032.28516	923.94836	1198.95447	-1104.57129	1150.92444	1275.77588	-877.24438	1009.76172	1409.77734	-801.28314	984.68390	1210.17517	-786.82263	969.03717	1098.59839	-770.87018	872.58789	984.92969	-815.07410	755.33051	936.86609	-786.87946	801.26874	890.24323	-788.62115	718.82440	851.81866	-1200.15820	1022.49152	1402.17737	-1277.83691	1081.47839	1205.70081	-1284.08398	1085.16431	1082.83398	-1296.92273	1085.34973	961.76068	-1264.44922	1040.94971	816.98987	-1299.93628	1098.49536	823.66132	-1300.68933	1072.07581	743.02972	-928.77783	938.62378	951.56189	-1149.90833	924.43060	969.24072	-964.96503	1091.46960	989.81592	-1132.45679	1077.37952	998.67450	-880.89838	1071.00049	647.61816	-899.00201	1108.34985	486.93375	-902.76398	1261.77844	278.87329	-942.36536	1346.59033	125.26524	-985.51178	1390.04431	130.35350	-958.95886	1232.81287	33.56254	-1207.83862	942.82452	641.71356	-1175.43701	919.53796	520.65094	-1177.85876	936.90662	254.54274	-1134.74951	941.00055	67.83085	-1094.66138	982.87970	41.22775	-1116.22961	787.72101	38.37897	-1050.24182	1068.13416	1696.09412																											 
47	0.460	-986.31793	962.03595	1668.26086	-1117.68213	953.45331	1656.41150	-992.66290	1089.59216	1601.42688	-1121.50854	1079.26563	1594.67273	-1037.10217	1074.25623	1448.59253	-1039.33240	1098.09021	1121.46033	-1042.71606	961.17590	1375.63245	-1033.86890	917.16803	1199.53442	-1106.56934	1144.17920	1276.00928	-878.84351	1003.75830	1409.98621	-802.90997	978.54834	1210.44250	-788.07178	962.55151	1098.96350	-771.86957	866.75720	984.78253	-816.12939	750.01642	935.46606	-787.52026	796.37891	889.41382	-788.75012	714.14569	850.53705	-1201.85828	1015.71399	1402.71472	-1279.42920	1074.70752	1206.11987	-1285.53210	1078.31555	1083.25049	-1298.05908	1078.21985	962.15387	-1265.06470	1033.49255	817.65375	-1300.73755	1090.99524	824.07239	-1300.94812	1064.66992	743.41028	-930.01068	932.16309	952.05865	-1151.29517	915.77423	969.76471	-966.53674	1084.87354	990.21265	-1134.04553	1070.39233	999.18683	-881.60358	1063.50830	647.80939	-899.26465	1100.16040	487.01620	-902.70081	1256.16064	281.07794	-941.68677	1343.17334	128.70349	-984.93103	1386.45325	134.81194	-958.98590	1232.06543	33.75792	-1208.75049	937.08319	641.62555	-1176.15686	914.72778	520.40009	-1178.29700	934.72113	254.35826	-1134.55347	940.68408	67.63920	-1094.69250	982.81866	41.28292	-1116.21960	787.52509	38.15987	-1051.62000	1062.02319	1696.53247																											 
48	0.470	-987.92578	955.38800	1668.37427	-1119.08081	947.33820	1656.95740	-994.07532	1083.34436	1601.68469	-1123.13391	1073.20032	1595.01001	-1038.81445	1067.88550	1448.90991	-1041.19885	1091.39331	1121.68945	-1044.23108	954.78644	1376.14917	-1035.36035	910.58594	1200.00452	-1108.53955	1137.49146	1276.14709	-880.40210	997.82886	1410.18457	-804.50085	972.45471	1210.59570	-789.50836	956.35291	1099.21973	-772.90033	861.10071	984.40179	-817.20459	744.96960	933.73895	-787.37299	791.54822	888.43018	-788.72101	709.52228	849.07489	-1203.53381	1008.93890	1403.09387	-1281.16748	1067.81213	1206.42725	-1287.06421	1071.29639	1083.47729	-1299.27124	1070.96362	962.37311	-1265.68945	1026.24109	818.07385	-1301.70947	1083.56360	824.31573	-1301.48450	1056.80945	743.61072	-931.30951	925.78375	952.44067	-1152.15210	910.50397	969.72736	-968.04749	1078.46606	990.53821	-1135.53613	1063.48267	999.60577	-882.39197	1055.80542	647.97137	-899.67432	1091.51709	486.93814	-903.00616	1250.29175	283.28140	-941.39746	1339.59253	132.38904	-984.89258	1382.45142	139.31789	-958.97028	1231.10986	34.09173	-1209.52588	931.65002	641.61194	-1176.93579	910.06860	520.11041	-1178.81934	932.64471	254.08801	-1134.59680	940.39661	67.53105	-1094.68152	982.76025	41.34880	-1116.20435	787.13336	37.52821	-1052.98816	1055.96460	1696.89685																											 
49	0.480	-989.28076	949.26129	1668.76514	-1120.42651	941.19727	1657.45654	-995.44116	1077.14270	1601.88855	-1124.50562	1066.93091	1595.24097	-1040.53809	1061.59241	1449.26685	-1043.02893	1084.79968	1121.90784	-1045.74548	948.45068	1376.49512	-1036.76685	904.08551	1200.33313	-1110.51404	1130.95349	1276.29443	-881.90247	991.93048	1410.32153	-806.05640	966.56335	1210.65942	-791.05457	950.32990	1099.26697	-773.88818	855.76288	983.95044	-818.23273	740.20837	931.80005	-787.91394	786.87335	887.33417	-788.93262	705.29565	847.20203	-1205.17566	1002.13538	1403.37378	-1282.87183	1060.72681	1206.57471	-1288.59167	1064.05713	1083.56726	-1300.45789	1063.45190	962.40845	-1266.16260	1018.51892	818.15100	-1302.52991	1075.66162	824.21606	-1302.20398	1049.12512	743.79388	-932.59729	919.49255	952.80383	-1153.20300	903.74896	969.81183	-969.46442	1072.17725	990.80188	-1137.03784	1056.74524	999.93170	-883.18524	1047.57422	647.72498	-900.25641	1082.35559	486.53360	-903.62585	1243.96338	285.36893	-941.48114	1335.57825	136.03769	-985.33289	1378.00012	143.93382	-959.24939	1230.36560	34.37968	-1210.36694	926.19952	641.58820	-1177.76221	905.69513	519.75952	-1179.37097	930.71600	253.78738	-1134.71765	940.16003	67.51503	-1094.69385	982.71875	41.45691	-1116.56323	787.07654	37.20874	-1054.31470	1049.93030	1697.18579																											 
